<?xml version="1.0" encoding="UTF-8"?>
<svg version="1.1" xmlns="http://www.w3.org/2000/svg" width="100" height="33">
<path d="M0 0 C1.14984375 -0.00257812 2.2996875 -0.00515625 3.484375 -0.0078125 C5.28648438 0.00378906 5.28648438 0.00378906 7.125 0.015625 C8.32640625 0.00789062 9.5278125 0.00015625 10.765625 -0.0078125 C12.49039062 -0.00394531 12.49039062 -0.00394531 14.25 0 C15.83167969 0.00338379 15.83167969 0.00338379 17.4453125 0.00683594 C20.125 0.265625 20.125 0.265625 23.125 2.265625 C24.69822611 6.98530332 24.309477 11.76051971 24.3125 16.703125 C24.32474609 17.75306641 24.33699219 18.80300781 24.34960938 19.88476562 C24.35154297 20.89603516 24.35347656 21.90730469 24.35546875 22.94921875 C24.35957764 23.87275146 24.36368652 24.79628418 24.36791992 25.74780273 C24.11076509 28.41316729 23.56538772 30.02160922 22.125 32.265625 C17.7906545 34.43279775 11.94829475 33.45058861 7.1875 33.453125 C5.37862305 33.47149414 5.37862305 33.47149414 3.53320312 33.49023438 C1.80166992 33.49313477 1.80166992 33.49313477 0.03515625 33.49609375 C-1.55607056 33.50225708 -1.55607056 33.50225708 -3.17944336 33.50854492 C-5.875 33.265625 -5.875 33.265625 -8.875 31.265625 C-9.26318359 28.40820312 -9.26318359 28.40820312 -9.2734375 24.796875 C-9.27730469 23.50394531 -9.28117188 22.21101563 -9.28515625 20.87890625 C-9.27572998 19.86691162 -9.27572998 19.86691162 -9.26611328 18.83447266 C-9.25005813 16.77308917 -9.26595597 14.7136661 -9.28515625 12.65234375 C-9.28128906 11.35941406 -9.27742187 10.06648437 -9.2734375 8.734375 C-9.27005371 7.54263672 -9.26666992 6.35089844 -9.26318359 5.12304688 C-9.13508301 4.18009766 -9.00698242 3.23714844 -8.875 2.265625 C-5.42139557 -0.03677795 -4.07000616 0.00870723 0 0 Z " fill="#02619D" transform="translate(8.875,-0.265625)"/>
<path d="M0 0 C1.98 0 3.96 0 6 0 C7.32 2.64 8.64 5.28 10 8 C10.99 5.36 11.98 2.72 13 0 C15.31 0 17.62 0 20 0 C20.33 0.66 20.66 1.32 21 2 C21.99 1.34 22.98 0.68 24 0 C30.98591549 -0.67605634 30.98591549 -0.67605634 35 2 C35.66 2.66 36.32 3.32 37 4 C37.66 2.68 38.32 1.36 39 0 C40.98 0 42.96 0 45 0 C45 4.95 45 9.9 45 15 C46.98 15 48.96 15 51 15 C51 12.03 51 9.06 51 6 C49.68 6 48.36 6 47 6 C47 4.02 47 2.04 47 0 C51.95 0 56.9 0 62 0 C62 1.98 62 3.96 62 6 C60.68 6 59.36 6 58 6 C58 10.95 58 15.9 58 21 C51.73 21 45.46 21 39 21 C38.67 21.66 38.34 22.32 38 23 C36.68 23 35.36 23 34 23 C33.34 22.34 32.68 21.68 32 21 C30.7625 21.061875 29.525 21.12375 28.25 21.1875 C24.88774956 21.28531092 23.22605978 20.8401012 20.625 18.6875 C18 16 18 16 16 13 C15.01 15.64 14.02 18.28 13 21 C11.02 21 9.04 21 7 21 C0 5.64974619 0 5.64974619 0 0 Z M26 2 C25.34 2.66 24.68 3.32 24 4 C24.66 4 25.32 4 26 4 C26 4.66 26 5.32 26 6 C25.01 6.33 24.02 6.66 23 7 C23 7.66 23 8.32 23 9 C22.01 8.67 21.02 8.34 20 8 C20.26393501 11.43230448 20.26393501 11.43230448 21 15 C22.485 15.99 22.485 15.99 24 17 C25.07525194 14.34771188 26.09456151 11.71631546 27 9 C27.99 9.33 28.98 9.66 30 10 C30.12375 10.78375 30.2475 11.5675 30.375 12.375 C30.79117993 15.14057822 30.79117993 15.14057822 33 17 C34.7089129 15.4212319 34.7089129 15.4212319 36 13 C36 8.68594211 35.68522185 6.72226087 32.6875 3.5625 C29.9417798 1.6649197 29.9417798 1.6649197 26 2 Z M37 16 C37 17.32 37 18.64 37 20 C37.33 18.68 37.66 17.36 38 16 C37.67 16 37.34 16 37 16 Z " fill="#06609A" transform="translate(38,6)"/>
<path d="M0 0 C2.58445773 -0.1081866 5.16437352 -0.18737237 7.75 -0.25 C8.47960937 -0.28351563 9.20921875 -0.31703125 9.9609375 -0.3515625 C13.24684957 -0.41130636 15.59910351 -0.22146551 18.49609375 1.37890625 C20.86744686 5.51183596 20.46043158 9.51614956 20.3125 14.1875 C20.30283203 15.11498047 20.29316406 16.04246094 20.28320312 16.99804688 C20.16822452 23.83177548 20.16822452 23.83177548 19 25 C17.00041636 25.04080783 14.99954746 25.04254356 13 25 C12.01 22.03 11.02 19.06 10 16 C9.01 16 8.02 16 7 16 C7 18.97 7 21.94 7 25 C4.36 25 1.72 25 -1 25 C-1 21.7 -1 18.4 -1 15 C-1.99 15 -2.98 15 -4 15 C-4 16.32 -4 17.64 -4 19 C-5.32 19 -6.64 19 -8 19 C-8 15.04 -8 11.08 -8 7 C-6.68 7 -5.36 7 -4 7 C-4 8.32 -4 9.64 -4 11 C-2.68 11 -1.36 11 0 11 C0 7.37 0 3.74 0 0 Z " fill="#3883B3" transform="translate(13,4)"/>
<path d="M0 0 C4.95 0 9.9 0 15 0 C15 1.98 15 3.96 15 6 C13.68 6 12.36 6 11 6 C11 10.95 11 15.9 11 21 C9.02 21 7.04 21 5 21 C4 20 4 20 3.90234375 16.83984375 C3.91974609 14.90818359 3.91974609 14.90818359 3.9375 12.9375 C3.94652344 11.64714844 3.95554687 10.35679688 3.96484375 9.02734375 C3.97644531 8.02832031 3.98804687 7.02929688 4 6 C2.68 6 1.36 6 0 6 C0 4.02 0 2.04 0 0 Z " fill="#01609C" transform="translate(85,6)"/>
<path d="M0 0 C1.32 0 2.64 0 4 0 C4 1.32 4 2.64 4 4 C5.32 4 6.64 4 8 4 C8 2.68 8 1.36 8 0 C8.99 0 9.98 0 11 0 C11 3.96 11 7.92 11 12 C10.01 12 9.02 12 8 12 C8 10.35 8 8.7 8 7 C6.68 7 5.36 7 4 7 C4 8.65 4 10.3 4 12 C2.68 12 1.36 12 0 12 C0 8.04 0 4.08 0 0 Z " fill="#E1ECF3" transform="translate(5,11)"/>
<path d="M0 0 C1.953125 0.7109375 1.953125 0.7109375 4 2 C4.609375 4.1640625 4.609375 4.1640625 4.75 6.625 C4.80671875 7.44226563 4.8634375 8.25953125 4.921875 9.1015625 C4.94765625 9.72804688 4.9734375 10.35453125 5 11 C2.36 11 -0.28 11 -3 11 C-2.88590407 9.54077307 -2.75834456 8.08259402 -2.625 6.625 C-2.55539063 5.81289063 -2.48578125 5.00078125 -2.4140625 4.1640625 C-2 2 -2 2 0 0 Z " fill="#1C1B22" transform="translate(65,14)"/>
<path d="M0 0 C1.99954746 -0.04254356 4.00041636 -0.04080783 6 0 C7 1 7 1 7.0625 3.5625 C7.041875 4.366875 7.02125 5.17125 7 6 C5.0085944 6.38133299 3.00720923 6.71325582 1 7 C0 6 0 6 -0.0625 2.9375 C-0.041875 1.968125 -0.02125 0.99875 0 0 Z " fill="#08659F" transform="translate(19,9)"/>
<path d="M0 0 C1.32 0.66 2.64 1.32 4 2 C3.67 3.32 3.34 4.64 3 6 C1.68 5.67 0.36 5.34 -1 5 C-1 1 -1 1 0 0 Z " fill="#015B9A" transform="translate(65,14)"/>
<path d="M0 0 C0.33 0 0.66 0 1 0 C1 3.3 1 6.6 1 10 C-0.95418308 7.06872538 -1.64700993 5.44165321 -2 2 C-1.34 1.34 -0.68 0.68 0 0 Z " fill="#025F9D" transform="translate(32,16)"/>
<path d="M0 0 C0.99 0.66 1.98 1.32 3 2 C3 2.99 3 3.98 3 5 C1.68 5 0.36 5 -1 5 C-1.33 3.68 -1.66 2.36 -2 1 C-1.34 0.67 -0.68 0.34 0 0 Z " fill="#1A181D" transform="translate(73,24)"/>
</svg>
