<?xml version="1.0" encoding="UTF-8"?>
<svg version="1.1" xmlns="http://www.w3.org/2000/svg" width="34" height="32">
<path d="M0 0 C1.25159912 0.00523682 2.50319824 0.01047363 3.79272461 0.01586914 C4.78942421 0.01799156 4.78942421 0.01799156 5.80625916 0.02015686 C7.93590735 0.02577021 10.06545175 0.03832485 12.19506836 0.05102539 C13.63582205 0.05603868 15.07657739 0.06060188 16.51733398 0.06469727 C20.05577938 0.07574394 23.59416375 0.09301747 27.13256836 0.11352539 C29.01922897 3.31728869 29.38909727 5.69656575 29.39819336 9.39477539 C29.40206055 10.90491211 29.40206055 10.90491211 29.40600586 12.44555664 C29.39827148 13.49098633 29.39053711 14.53641602 29.38256836 15.61352539 C29.39416992 17.18166992 29.39416992 17.18166992 29.40600586 18.78149414 C29.40342773 19.78825195 29.40084961 20.79500977 29.39819336 21.83227539 C29.3959375 22.74944336 29.39368164 23.66661133 29.39135742 24.61157227 C29.11749376 27.25926548 28.56143376 28.88021507 27.13256836 31.11352539 C22.79822286 33.28069814 16.95586311 32.29848901 12.19506836 32.30102539 C10.38619141 32.31939453 10.38619141 32.31939453 8.54077148 32.33813477 C6.80923828 32.34103516 6.80923828 32.34103516 5.04272461 32.34399414 C3.4514978 32.35015747 3.4514978 32.35015747 1.828125 32.35644531 C-0.86743164 32.11352539 -0.86743164 32.11352539 -3.86743164 30.11352539 C-4.22387695 27.24023438 -4.22387695 27.24023438 -4.19555664 23.60961914 C-4.19040039 22.31217773 -4.18524414 21.01473633 -4.17993164 19.67797852 C-4.16961914 19.00130127 -4.15930664 18.32462402 -4.14868164 17.62744141 C-4.11749992 15.55556257 -4.10770933 13.48444381 -4.10180664 11.41235352 C-4.01227107 0.15885109 -4.01227107 0.15885109 0 0 Z " fill="#015990" transform="translate(3.867431640625,-0.113525390625)"/>
<path d="M0 0 C2.60478883 -0.0809313 5.20706653 -0.14045434 7.8125 -0.1875 C8.55048828 -0.21263672 9.28847656 -0.23777344 10.04882812 -0.26367188 C15.51573727 -0.33788331 15.51573727 -0.33788331 17.71875 1.19921875 C19.43686002 3.61400144 19.34405535 5.15947492 19.29296875 8.10546875 C19.28330078 9.08837891 19.27363281 10.07128906 19.26367188 11.08398438 C19.23853516 12.10814453 19.21339844 13.13230469 19.1875 14.1875 C19.16719727 15.74114258 19.16719727 15.74114258 19.14648438 17.32617188 C19.11111389 19.88463699 19.06175544 22.4420578 19 25 C17.02 25 15.04 25 13 25 C12.01 22.03 11.02 19.06 10 16 C9.01 16 8.02 16 7 16 C7 18.97 7 21.94 7 25 C4.36 25 1.72 25 -1 25 C-1 21.7 -1 18.4 -1 15 C-1.99 15 -2.98 15 -4 15 C-4 16.32 -4 17.64 -4 19 C-5.32 19 -6.64 19 -8 19 C-8 15.04 -8 11.08 -8 7 C-6.68 7 -5.36 7 -4 7 C-4 8.32 -4 9.64 -4 11 C-2.68 11 -1.36 11 0 11 C0 7.37 0 3.74 0 0 Z " fill="#3783B2" transform="translate(13,3)"/>
<path d="M0 0 C1.32 0 2.64 0 4 0 C4 1.32 4 2.64 4 4 C5.32 4 6.64 4 8 4 C8 2.68 8 1.36 8 0 C8.99 0 9.98 0 11 0 C11 3.96 11 7.92 11 12 C10.01 12 9.02 12 8 12 C8 10.35 8 8.7 8 7 C6.68 7 5.36 7 4 7 C4 8.65 4 10.3 4 12 C2.68 12 1.36 12 0 12 C0 8.04 0 4.08 0 0 Z " fill="#E2EDF4" transform="translate(5,10)"/>
<path d="M0 0 C1.99954746 -0.04254356 4.00041636 -0.04080783 6 0 C7 1 7 1 7.0625 3.5625 C7.041875 4.366875 7.02125 5.17125 7 6 C5.0085944 6.38133299 3.00720923 6.71325582 1 7 C0 6 0 6 -0.0625 2.9375 C-0.041875 1.968125 -0.02125 0.99875 0 0 Z " fill="#07659F" transform="translate(19,8)"/>
</svg>
